<svg width="20" height="20" viewBox="0 0 20 20" fill="none" xmlns="http://www.w3.org/2000/svg">
<path d="M0 10.0001C0 9.13506 0.11 8.29706 0.316 7.49606C0.868465 7.5251 1.4182 7.40081 1.90444 7.13693C2.39068 6.87305 2.79448 6.47985 3.07121 6.00081C3.34793 5.52176 3.48681 4.97552 3.47247 4.42248C3.45814 3.86944 3.29117 3.33113 2.99 2.86706C4.19894 1.67763 5.69079 0.815556 7.325 0.362061C7.57599 0.855533 7.95864 1.26993 8.43058 1.55937C8.90253 1.84881 9.44537 2.00202 9.999 2.00202C10.5526 2.00202 11.0955 1.84881 11.5674 1.55937C12.0394 1.26993 12.422 0.855533 12.673 0.362061C14.3072 0.815556 15.7991 1.67763 17.008 2.86706C16.7065 3.33121 16.5393 3.86973 16.5248 4.42303C16.5104 4.97632 16.6493 5.52283 16.9262 6.00207C17.2031 6.48132 17.6071 6.87463 18.0937 7.13848C18.5802 7.40232 19.1303 7.52643 19.683 7.49706C19.889 8.29706 19.999 9.13506 19.999 10.0001C19.999 10.8651 19.889 11.7031 19.683 12.5041C19.1305 12.4748 18.5806 12.599 18.0942 12.8628C17.6078 13.1266 17.2039 13.5198 16.927 13.9988C16.6502 14.4779 16.5112 15.0242 16.5255 15.5774C16.5398 16.1305 16.7068 16.6689 17.008 17.1331C15.7991 18.3225 14.3072 19.1846 12.673 19.6381C12.422 19.1446 12.0394 18.7302 11.5674 18.4408C11.0955 18.1513 10.5526 17.9981 9.999 17.9981C9.44537 17.9981 8.90253 18.1513 8.43058 18.4408C7.95864 18.7302 7.57599 19.1446 7.325 19.6381C5.69079 19.1846 4.19894 18.3225 2.99 17.1331C3.29151 16.6689 3.45873 16.1304 3.47317 15.5771C3.48761 15.0238 3.3487 14.4773 3.07181 13.998C2.79492 13.5188 2.39085 13.1255 1.90431 12.8616C1.41776 12.5978 0.867704 12.4737 0.315 12.5031C0.11 11.7041 0 10.8661 0 10.0001ZM4.804 13.0001C5.434 14.0911 5.614 15.3461 5.368 16.5241C5.776 16.8141 6.21 17.0651 6.665 17.2741C7.58167 16.4529 8.76931 15.9992 10 16.0001C11.26 16.0001 12.438 16.4711 13.335 17.2741C13.79 17.0651 14.224 16.8141 14.632 16.5241C14.3794 15.32 14.5803 14.0651 15.196 13.0001C15.8106 11.9344 16.797 11.1332 17.966 10.7501C18.0122 10.2511 18.0122 9.74899 17.966 9.25006C16.7966 8.86712 15.8099 8.06588 15.195 7.00006C14.5793 5.93499 14.3784 4.6801 14.631 3.47606C14.2231 3.18598 13.7889 2.93488 13.334 2.72606C12.4176 3.54699 11.2303 4.00067 10 4.00006C8.76931 4.00092 7.58167 3.54722 6.665 2.72606C6.21013 2.93488 5.77589 3.18599 5.368 3.47606C5.62056 4.6801 5.41972 5.93499 4.804 7.00006C4.18937 8.06569 3.20298 8.86691 2.034 9.25006C1.98775 9.74899 1.98775 10.2511 2.034 10.7501C3.20335 11.133 4.19013 11.9342 4.805 13.0001H4.804ZM10 13.0001C9.20435 13.0001 8.44129 12.684 7.87868 12.1214C7.31607 11.5588 7 10.7957 7 10.0001C7 9.20441 7.31607 8.44135 7.87868 7.87874C8.44129 7.31613 9.20435 7.00006 10 7.00006C10.7956 7.00006 11.5587 7.31613 12.1213 7.87874C12.6839 8.44135 13 9.20441 13 10.0001C13 10.7957 12.6839 11.5588 12.1213 12.1214C11.5587 12.684 10.7956 13.0001 10 13.0001ZM10 11.0001C10.2652 11.0001 10.5196 10.8947 10.7071 10.7072C10.8946 10.5196 11 10.2653 11 10.0001C11 9.73484 10.8946 9.48049 10.7071 9.29295C10.5196 9.10542 10.2652 9.00006 10 9.00006C9.73478 9.00006 9.48043 9.10542 9.29289 9.29295C9.10536 9.48049 9 9.73484 9 10.0001C9 10.2653 9.10536 10.5196 9.29289 10.7072C9.48043 10.8947 9.73478 11.0001 10 11.0001Z" fill="white"/>
</svg>
