<svg width="25" height="26" viewBox="0 0 25 26" fill="none" xmlns="http://www.w3.org/2000/svg">
<g filter="url(#filter0_di_1_2334)">
<path d="M11.5 16.9978H5V14.9978H11.5C12.1387 14.9981 12.7653 15.1731 13.3116 15.5039C13.858 15.8348 14.3035 16.3088 14.5997 16.8748C14.8959 17.4407 15.0316 18.0769 14.992 18.7144C14.9525 19.3519 14.7393 19.9665 14.3755 20.4915C14.0116 21.0165 13.5111 21.4319 12.928 21.6927C12.3449 21.9535 11.7016 22.0498 11.0677 21.9712C10.4338 21.8925 9.83356 21.6419 9.33194 21.2465C8.83032 20.851 8.44647 20.3258 8.222 19.7278L10.095 19.0248C10.1912 19.2811 10.3557 19.5062 10.5706 19.6757C10.7856 19.8452 11.0428 19.9527 11.3145 19.9864C11.5862 20.0201 11.8619 19.9789 12.1118 19.8671C12.3617 19.7554 12.5762 19.5773 12.7322 19.3523C12.8881 19.1274 12.9795 18.864 12.9965 18.5907C13.0135 18.3175 12.9553 18.0449 12.8284 17.8023C12.7015 17.5598 12.5106 17.3566 12.2764 17.2148C12.0423 17.073 11.7738 16.9979 11.5 16.9978ZM6 10.9978H19.5C20.1387 10.9981 20.7653 11.1731 21.3116 11.5039C21.858 11.8348 22.3035 12.3088 22.5997 12.8748C22.8959 13.4407 23.0316 14.0769 22.992 14.7144C22.9525 15.3519 22.7393 15.9665 22.3755 16.4915C22.0116 17.0165 21.5111 17.4319 20.928 17.6927C20.3449 17.9535 19.7016 18.0498 19.0677 17.9712C18.4338 17.8925 17.8336 17.6419 17.3319 17.2464C16.8303 16.851 16.4465 16.3258 16.222 15.7278L18.095 15.0248C18.1912 15.2811 18.3557 15.5062 18.5706 15.6757C18.7856 15.8452 19.0428 15.9527 19.3145 15.9864C19.5862 16.0201 19.8619 15.9789 20.1118 15.8671C20.3617 15.7553 20.5762 15.5773 20.7322 15.3523C20.8881 15.1273 20.9795 14.864 20.9965 14.5907C21.0135 14.3175 20.9553 14.0449 20.8284 13.8023C20.7015 13.5598 20.5106 13.3566 20.2764 13.2148C20.0423 13.073 19.7738 12.9979 19.5 12.9978H6C5.20435 12.9978 4.44129 12.6818 3.87868 12.1191C3.31607 11.5565 3 10.7935 3 9.99783C3 9.20218 3.31607 8.43912 3.87868 7.87651C4.44129 7.3139 5.20435 6.99783 6 6.99783H14.5C14.7738 6.99771 15.0423 6.92269 15.2764 6.78088C15.5106 6.63907 15.7015 6.43588 15.8284 6.19334C15.9553 5.95079 16.0135 5.67813 15.9965 5.40491C15.9795 5.13168 15.8881 4.86831 15.7322 4.64332C15.5762 4.41833 15.3617 4.24031 15.1118 4.12854C14.8619 4.01677 14.5862 3.97553 14.3145 4.00926C14.0428 4.043 13.7856 4.15044 13.5706 4.31994C13.3557 4.48944 13.1912 4.71453 13.095 4.97083L11.222 4.26883C11.5105 3.50163 12.059 2.85997 12.7719 2.45564C13.4849 2.05131 14.3171 1.90994 15.1236 2.05618C15.9301 2.20241 16.6597 2.62697 17.1853 3.25588C17.711 3.8848 17.9993 4.67819 18 5.49783C18 6.42609 17.6313 7.31632 16.9749 7.9727C16.3185 8.62908 15.4283 8.99783 14.5 8.99783H6C5.73478 8.99783 5.48043 9.10319 5.29289 9.29072C5.10536 9.47826 5 9.73261 5 9.99783C5 10.263 5.10536 10.5174 5.29289 10.7049C5.48043 10.8925 5.73478 10.9978 6 10.9978Z" fill="white"/>
</g>
<defs>
<filter id="filter0_di_1_2334" x="-2" y="0" width="27" height="28" filterUnits="userSpaceOnUse" color-interpolation-filters="sRGB">
<feFlood flood-opacity="0" result="BackgroundImageFix"/>
<feColorMatrix in="SourceAlpha" type="matrix" values="0 0 0 0 0 0 0 0 0 0 0 0 0 0 0 0 0 0 127 0" result="hardAlpha"/>
<feOffset dx="-2" dy="3"/>
<feGaussianBlur stdDeviation="0.5"/>
<feColorMatrix type="matrix" values="0 0 0 0 0 0 0 0 0 0 0 0 0 0 0 0 0 0 0.1 0"/>
<feBlend mode="normal" in2="BackgroundImageFix" result="effect1_dropShadow_1_2334"/>
<feBlend mode="normal" in="SourceGraphic" in2="effect1_dropShadow_1_2334" result="shape"/>
<feColorMatrix in="SourceAlpha" type="matrix" values="0 0 0 0 0 0 0 0 0 0 0 0 0 0 0 0 0 0 127 0" result="hardAlpha"/>
<feOffset dx="-1" dy="1"/>
<feGaussianBlur stdDeviation="1"/>
<feComposite in2="hardAlpha" operator="arithmetic" k2="-1" k3="1"/>
<feColorMatrix type="matrix" values="0 0 0 0 1 0 0 0 0 1 0 0 0 0 1 0 0 0 0.25 0"/>
<feBlend mode="normal" in2="shape" result="effect2_innerShadow_1_2334"/>
</filter>
</defs>
</svg>
